<?xml version="1.0" encoding="UTF-8" standalone="no"?>
<!DOCTYPE svg PUBLIC "-//W3C//DTD SVG 1.1//EN"
 "http://www.w3.org/Graphics/SVG/1.1/DTD/svg11.dtd">
<!-- Generated by graphviz version 2.30.1 (20180420.1509)
 -->
<!-- Title: k9_dag Pages: 1 -->
<svg width="991pt" height="1635pt"
 viewBox="0.00 0.00 990.60 1634.60" xmlns="http://www.w3.org/2000/svg" xmlns:xlink="http://www.w3.org/1999/xlink">
<g id="graph0" class="graph" transform="scale(1 1) rotate(0) translate(4 1630.6)">
<title>k9_dag</title>
<polygon fill="white" stroke="white" points="-4,5 -4,-1630.6 987.6,-1630.6 987.6,5 -4,5"/>
<!-- p0 -->
<g id="node1" class="node"><title>p0</title>
<ellipse fill="black" stroke="black" cx="127.6" cy="-1608" rx="3.6" ry="3.6"/>
<text text-anchor="middle" x="62" y="-1615.4" font-family="Times,serif" font-size="14.00">Channel.fromFilePairs</text>
</g>
<!-- p1 -->
<g id="node2" class="node"><title>p1</title>
<ellipse fill="none" stroke="black" cx="127.6" cy="-1548" rx="3.25" ry="3.5"/>
<text text-anchor="middle" x="113.1" y="-1555.3" font-family="Times,serif" font-size="14.00">into</text>
</g>
<!-- p0&#45;&gt;p1 -->
<g id="edge1" class="edge"><title>p0&#45;&gt;p1</title>
<path fill="none" stroke="black" d="M127.6,-1604.2C127.6,-1596.65 127.6,-1575.48 127.6,-1561.66"/>
<polygon fill="black" stroke="black" points="131.1,-1561.64 127.6,-1551.64 124.1,-1561.64 131.1,-1561.64"/>
<text text-anchor="middle" x="154.1" y="-1574.3" font-family="Times,serif" font-size="14.00">fastqFiles</text>
</g>
<!-- p4 -->
<g id="node3" class="node"><title>p4</title>
<ellipse fill="none" stroke="black" cx="167.6" cy="-1474" rx="31.2735" ry="18"/>
<text text-anchor="middle" x="167.6" y="-1470.3" font-family="Times,serif" font-size="14.00">fastqc</text>
</g>
<!-- p1&#45;&gt;p4 -->
<g id="edge2" class="edge"><title>p1&#45;&gt;p4</title>
<path fill="none" stroke="black" d="M129.724,-1544.96C133.353,-1541.39 140.82,-1533.66 145.6,-1526 150.391,-1518.32 154.626,-1509.42 158.068,-1501.22"/>
<polygon fill="black" stroke="black" points="161.411,-1502.29 161.859,-1491.7 154.908,-1499.7 161.411,-1502.29"/>
<text text-anchor="middle" x="176.6" y="-1514.3" font-family="Times,serif" font-size="14.00">fastq_qc</text>
</g>
<!-- p6 -->
<g id="node4" class="node"><title>p6</title>
<ellipse fill="none" stroke="black" cx="88.6" cy="-1474" rx="27" ry="18"/>
<text text-anchor="middle" x="88.6" y="-1470.3" font-family="Times,serif" font-size="14.00">bwa</text>
</g>
<!-- p1&#45;&gt;p6 -->
<g id="edge3" class="edge"><title>p1&#45;&gt;p6</title>
<path fill="none" stroke="black" d="M124.516,-1546.38C116.957,-1544.68 97.5422,-1539.17 89.6,-1526 85.4018,-1519.04 84.0853,-1510.52 84.1239,-1502.44"/>
<polygon fill="black" stroke="black" points="87.6298,-1502.48 84.8268,-1492.26 80.6464,-1501.99 87.6298,-1502.48"/>
<text text-anchor="middle" x="117.6" y="-1514.3" font-family="Times,serif" font-size="14.00">fastq_bwa</text>
</g>
<!-- p8 -->
<g id="node9" class="node"><title>p8</title>
<ellipse fill="none" stroke="black" cx="163.6" cy="-1386" rx="54.3924" ry="18"/>
<text text-anchor="middle" x="163.6" y="-1382.3" font-family="Times,serif" font-size="14.00">gatk_realign</text>
</g>
<!-- p6&#45;&gt;p8 -->
<g id="edge7" class="edge"><title>p6&#45;&gt;p8</title>
<path fill="none" stroke="black" d="M91.9787,-1455.98C94.7649,-1445.32 99.5954,-1431.81 107.6,-1422 112.334,-1416.2 118.298,-1411.08 124.555,-1406.67"/>
<polygon fill="black" stroke="black" points="126.677,-1409.47 133.182,-1401.1 122.882,-1403.59 126.677,-1409.47"/>
<text text-anchor="middle" x="147.1" y="-1426.3" font-family="Times,serif" font-size="14.00">mapped_reads</text>
</g>
<!-- p2 -->
<g id="node5" class="node"><title>p2</title>
<ellipse fill="black" stroke="black" cx="352.6" cy="-1298" rx="3.6" ry="3.6"/>
<text text-anchor="middle" x="299" y="-1305.4" font-family="Times,serif" font-size="14.00">Channel.fromPath</text>
</g>
<!-- p3 -->
<g id="node6" class="node"><title>p3</title>
<ellipse fill="none" stroke="black" cx="352.6" cy="-1210" rx="3.25" ry="3.5"/>
<text text-anchor="middle" x="336.6" y="-1217.3" font-family="Times,serif" font-size="14.00">map</text>
</g>
<!-- p2&#45;&gt;p3 -->
<g id="edge4" class="edge"><title>p2&#45;&gt;p3</title>
<path fill="none" stroke="black" d="M352.6,-1294.14C352.6,-1283.28 352.6,-1244.21 352.6,-1223.73"/>
<polygon fill="black" stroke="black" points="356.1,-1223.61 352.6,-1213.61 349.1,-1223.61 356.1,-1223.61"/>
<text text-anchor="middle" x="378.1" y="-1250.3" font-family="Times,serif" font-size="14.00">bamFiles</text>
</g>
<!-- p12 -->
<g id="node7" class="node"><title>p12</title>
<ellipse fill="none" stroke="black" cx="293.6" cy="-1136" rx="3.25" ry="3.5"/>
<text text-anchor="middle" x="272.1" y="-1143.3" font-family="Times,serif" font-size="14.00">concat</text>
</g>
<!-- p3&#45;&gt;p12 -->
<g id="edge5" class="edge"><title>p3&#45;&gt;p12</title>
<path fill="none" stroke="black" d="M352.083,-1206.35C350.378,-1198.21 344.247,-1173.22 330.6,-1158 323.975,-1150.61 314.11,-1145.19 306.233,-1141.71"/>
<polygon fill="black" stroke="black" points="307.309,-1138.38 296.721,-1138 304.762,-1144.9 307.309,-1138.38"/>
<text text-anchor="middle" x="383.1" y="-1162.3" font-family="Times,serif" font-size="14.00">readyBamFiles</text>
</g>
<!-- p13 -->
<g id="node14" class="node"><title>p13</title>
<ellipse fill="none" stroke="black" cx="293.6" cy="-1090" rx="3.25" ry="3.5"/>
<text text-anchor="middle" x="281.6" y="-1097.3" font-family="Times,serif" font-size="14.00">tap</text>
</g>
<!-- p12&#45;&gt;p13 -->
<g id="edge13" class="edge"><title>p12&#45;&gt;p13</title>
<path fill="none" stroke="black" d="M293.6,-1132.38C293.6,-1126.86 293.6,-1113.74 293.6,-1103.74"/>
<polygon fill="black" stroke="black" points="297.1,-1103.55 293.6,-1093.55 290.1,-1103.55 297.1,-1103.55"/>
</g>
<!-- p5 -->
<g id="node8" class="node"><title>p5</title>
<ellipse fill="black" stroke="black" cx="55.6" cy="-1548" rx="3.6" ry="3.6"/>
</g>
<!-- p5&#45;&gt;p6 -->
<g id="edge6" class="edge"><title>p5&#45;&gt;p6</title>
<path fill="none" stroke="black" d="M56.4955,-1544.26C58.5524,-1538.05 63.8796,-1522.49 69.6,-1510 71.0847,-1506.76 72.742,-1503.4 74.4423,-1500.11"/>
<polygon fill="black" stroke="black" points="77.6066,-1501.62 79.2401,-1491.15 71.4351,-1498.31 77.6066,-1501.62"/>
</g>
<!-- p9 -->
<g id="node11" class="node"><title>p9</title>
<ellipse fill="none" stroke="black" cx="163.6" cy="-1298" rx="69.3156" ry="18"/>
<text text-anchor="middle" x="163.6" y="-1294.3" font-family="Times,serif" font-size="14.00">mark_duplicates</text>
</g>
<!-- p8&#45;&gt;p9 -->
<g id="edge9" class="edge"><title>p8&#45;&gt;p9</title>
<path fill="none" stroke="black" d="M163.6,-1367.6C163.6,-1355.75 163.6,-1339.82 163.6,-1326.29"/>
<polygon fill="black" stroke="black" points="167.1,-1326.08 163.6,-1316.08 160.1,-1326.08 167.1,-1326.08"/>
<text text-anchor="middle" x="206.6" y="-1338.3" font-family="Times,serif" font-size="14.00">realigned_reads</text>
</g>
<!-- p7 -->
<g id="node10" class="node"><title>p7</title>
<ellipse fill="black" stroke="black" cx="220.6" cy="-1474" rx="3.6" ry="3.6"/>
</g>
<!-- p7&#45;&gt;p8 -->
<g id="edge8" class="edge"><title>p7&#45;&gt;p8</title>
<path fill="none" stroke="black" d="M219.327,-1470.6C215.366,-1463.18 202.796,-1440.04 190.6,-1422 188.344,-1418.66 185.877,-1415.22 183.382,-1411.86"/>
<polygon fill="black" stroke="black" points="186.066,-1409.61 177.222,-1403.77 180.497,-1413.85 186.066,-1409.61"/>
</g>
<!-- p11 -->
<g id="node12" class="node"><title>p11</title>
<ellipse fill="none" stroke="black" cx="234.6" cy="-1210" rx="83.2649" ry="18"/>
<text text-anchor="middle" x="234.6" y="-1206.3" font-family="Times,serif" font-size="14.00">quality_recalibration</text>
</g>
<!-- p9&#45;&gt;p11 -->
<g id="edge10" class="edge"><title>p9&#45;&gt;p11</title>
<path fill="none" stroke="black" d="M160.109,-1279.62C158.951,-1269.1 159.285,-1255.85 165.6,-1246 169.539,-1239.86 174.912,-1234.75 180.933,-1230.51"/>
<polygon fill="black" stroke="black" points="182.794,-1233.47 189.473,-1225.25 179.123,-1227.51 182.794,-1233.47"/>
<text text-anchor="middle" x="204.1" y="-1250.3" font-family="Times,serif" font-size="14.00">marked_reads</text>
</g>
<!-- p11&#45;&gt;p12 -->
<g id="edge12" class="edge"><title>p11&#45;&gt;p12</title>
<path fill="none" stroke="black" d="M228.486,-1191.87C225.821,-1181.18 224.674,-1167.66 231.6,-1158 242.562,-1142.71 265.266,-1138.42 279.947,-1137.29"/>
<polygon fill="black" stroke="black" points="280.418,-1140.77 290.286,-1136.91 280.166,-1133.78 280.418,-1140.77"/>
<text text-anchor="middle" x="279.1" y="-1162.3" font-family="Times,serif" font-size="14.00">recalibrated_bam</text>
</g>
<!-- p10 -->
<g id="node13" class="node"><title>p10</title>
<ellipse fill="black" stroke="black" cx="263.6" cy="-1298" rx="3.6" ry="3.6"/>
</g>
<!-- p10&#45;&gt;p11 -->
<g id="edge11" class="edge"><title>p10&#45;&gt;p11</title>
<path fill="none" stroke="black" d="M262.635,-1294.14C259.696,-1285.42 250.625,-1258.52 243.589,-1237.66"/>
<polygon fill="black" stroke="black" points="246.846,-1236.36 240.334,-1228 240.213,-1238.6 246.846,-1236.36"/>
<text text-anchor="middle" x="271.1" y="-1250.3" font-family="Times,serif" font-size="14.00">known</text>
</g>
<!-- p14 -->
<g id="node15" class="node"><title>p14</title>
<ellipse fill="black" stroke="black" cx="263.6" cy="-1016" rx="1.8" ry="1.8"/>
</g>
<!-- p13&#45;&gt;p14 -->
<g id="edge14" class="edge"><title>p13&#45;&gt;p14</title>
<path fill="none" stroke="black" d="M292.602,-1086.6C288.797,-1077.47 275.057,-1044.5 267.94,-1027.42"/>
<polygon fill="black" stroke="black" points="271.092,-1025.88 264.016,-1018 264.631,-1028.57 271.092,-1025.88"/>
</g>
<!-- p15 -->
<g id="node16" class="node"><title>p15</title>
<ellipse fill="none" stroke="black" cx="323.6" cy="-1016" rx="39.9464" ry="18"/>
<text text-anchor="middle" x="323.6" y="-1012.3" font-family="Times,serif" font-size="14.00">flagstats</text>
</g>
<!-- p13&#45;&gt;p15 -->
<g id="edge15" class="edge"><title>p13&#45;&gt;p15</title>
<path fill="none" stroke="black" d="M294.598,-1086.6C297.42,-1079.83 305.704,-1059.95 312.699,-1043.16"/>
<polygon fill="black" stroke="black" points="316.003,-1044.33 316.618,-1033.76 309.541,-1041.64 316.003,-1044.33"/>
<text text-anchor="middle" x="382.1" y="-1056.3" font-family="Times,serif" font-size="14.00">recalibrated_bam_flagstats</text>
</g>
<!-- p17 -->
<g id="node17" class="node"><title>p17</title>
<ellipse fill="none" stroke="black" cx="54.6" cy="-1016" rx="51.0191" ry="18"/>
<text text-anchor="middle" x="54.6" y="-1012.3" font-family="Times,serif" font-size="14.00">wgsmetrics</text>
</g>
<!-- p13&#45;&gt;p17 -->
<g id="edge16" class="edge"><title>p13&#45;&gt;p17</title>
<path fill="none" stroke="black" d="M290.255,-1088.9C268.289,-1088.17 144.519,-1083.41 110.6,-1068 97.053,-1061.84 84.5408,-1051.17 74.7954,-1041.17"/>
<polygon fill="black" stroke="black" points="77.2754,-1038.69 67.911,-1033.74 72.1411,-1043.45 77.2754,-1038.69"/>
<text text-anchor="middle" x="192.6" y="-1056.3" font-family="Times,serif" font-size="14.00">recalibrated_bam_wgsmetrics</text>
</g>
<!-- p19 -->
<g id="node18" class="node"><title>p19</title>
<ellipse fill="none" stroke="black" cx="571.6" cy="-1016" rx="66.4165" ry="18"/>
<text text-anchor="middle" x="571.6" y="-1012.3" font-family="Times,serif" font-size="14.00">haplotypeCaller</text>
</g>
<!-- p13&#45;&gt;p19 -->
<g id="edge17" class="edge"><title>p13&#45;&gt;p19</title>
<path fill="none" stroke="black" d="M296.896,-1089.13C314.351,-1089.72 397.542,-1091.14 459.6,-1068 471.612,-1063.52 472.248,-1057.96 483.6,-1052 495.898,-1045.55 509.661,-1039.54 522.583,-1034.39"/>
<polygon fill="black" stroke="black" points="524.212,-1037.51 532.263,-1030.63 521.674,-1030.99 524.212,-1037.51"/>
<text text-anchor="middle" x="561.1" y="-1056.3" font-family="Times,serif" font-size="14.00">recalibrated_bam_haplotype</text>
</g>
<!-- p20 -->
<g id="node21" class="node"><title>p20</title>
<ellipse fill="none" stroke="black" cx="571.6" cy="-928" rx="102.536" ry="18"/>
<text text-anchor="middle" x="571.6" y="-924.3" font-family="Times,serif" font-size="14.00">haplotypeCallerCompress</text>
</g>
<!-- p19&#45;&gt;p20 -->
<g id="edge20" class="edge"><title>p19&#45;&gt;p20</title>
<path fill="none" stroke="black" d="M571.6,-997.597C571.6,-985.746 571.6,-969.817 571.6,-956.292"/>
<polygon fill="black" stroke="black" points="575.1,-956.084 571.6,-946.084 568.1,-956.084 575.1,-956.084"/>
<text text-anchor="middle" x="617.1" y="-968.3" font-family="Times,serif" font-size="14.00">haplotype_caller</text>
</g>
<!-- p16 -->
<g id="node19" class="node"><title>p16</title>
<ellipse fill="black" stroke="black" cx="17.6" cy="-1090" rx="3.6" ry="3.6"/>
</g>
<!-- p16&#45;&gt;p17 -->
<g id="edge18" class="edge"><title>p16&#45;&gt;p17</title>
<path fill="none" stroke="black" d="M16.9817,-1086.15C15.7316,-1079.73 13.4388,-1063.77 18.6,-1052 20.4619,-1047.75 23.1041,-1043.76 26.122,-1040.1"/>
<polygon fill="black" stroke="black" points="28.8438,-1042.32 33.1717,-1032.65 23.7577,-1037.51 28.8438,-1042.32"/>
<text text-anchor="middle" x="44.1" y="-1056.3" font-family="Times,serif" font-size="14.00">reference</text>
</g>
<!-- p18 -->
<g id="node20" class="node"><title>p18</title>
<ellipse fill="black" stroke="black" cx="656.6" cy="-1090" rx="3.6" ry="3.6"/>
</g>
<!-- p18&#45;&gt;p19 -->
<g id="edge19" class="edge"><title>p18&#45;&gt;p19</title>
<path fill="none" stroke="black" d="M656.268,-1086.32C655.317,-1079.71 652.019,-1062.37 642.6,-1052 636.559,-1045.35 628.971,-1039.81 621.022,-1035.25"/>
<polygon fill="black" stroke="black" points="622.44,-1032.04 611.956,-1030.51 619.198,-1038.25 622.44,-1032.04"/>
</g>
<!-- p21 -->
<g id="node22" class="node"><title>p21</title>
<ellipse fill="none" stroke="black" cx="571.6" cy="-854" rx="3.25" ry="3.5"/>
<text text-anchor="middle" x="552.1" y="-861.3" font-family="Times,serif" font-size="14.00">toList</text>
</g>
<!-- p20&#45;&gt;p21 -->
<g id="edge21" class="edge"><title>p20&#45;&gt;p21</title>
<path fill="none" stroke="black" d="M571.6,-909.937C571.6,-897.126 571.6,-879.843 571.6,-868.107"/>
<polygon fill="black" stroke="black" points="575.1,-867.748 571.6,-857.748 568.1,-867.748 575.1,-867.748"/>
<text text-anchor="middle" x="632.1" y="-880.3" font-family="Times,serif" font-size="14.00">compress_haplocalled</text>
</g>
<!-- p22 -->
<g id="node23" class="node"><title>p22</title>
<ellipse fill="none" stroke="black" cx="571.6" cy="-808" rx="3.25" ry="3.5"/>
<text text-anchor="middle" x="542.1" y="-815.3" font-family="Times,serif" font-size="14.00">transpose</text>
</g>
<!-- p21&#45;&gt;p22 -->
<g id="edge22" class="edge"><title>p21&#45;&gt;p22</title>
<path fill="none" stroke="black" d="M571.6,-850.379C571.6,-844.864 571.6,-831.742 571.6,-821.742"/>
<polygon fill="black" stroke="black" points="575.1,-821.552 571.6,-811.552 568.1,-821.552 575.1,-821.552"/>
</g>
<!-- p23 -->
<g id="node24" class="node"><title>p23</title>
<ellipse fill="none" stroke="black" cx="571.6" cy="-762" rx="3.25" ry="3.5"/>
<text text-anchor="middle" x="552.1" y="-769.3" font-family="Times,serif" font-size="14.00">toList</text>
</g>
<!-- p22&#45;&gt;p23 -->
<g id="edge23" class="edge"><title>p22&#45;&gt;p23</title>
<path fill="none" stroke="black" d="M571.6,-804.379C571.6,-798.864 571.6,-785.742 571.6,-775.742"/>
<polygon fill="black" stroke="black" points="575.1,-775.552 571.6,-765.552 568.1,-775.552 575.1,-775.552"/>
</g>
<!-- p26 -->
<g id="node25" class="node"><title>p26</title>
<ellipse fill="none" stroke="black" cx="682.6" cy="-688" rx="64.4914" ry="18"/>
<text text-anchor="middle" x="682.6" y="-684.3" font-family="Times,serif" font-size="14.00">gVCFCombine</text>
</g>
<!-- p23&#45;&gt;p26 -->
<g id="edge24" class="edge"><title>p23&#45;&gt;p26</title>
<path fill="none" stroke="black" d="M571.61,-758.265C571.782,-751.515 573.166,-733.895 582.6,-724 592.405,-713.716 605.398,-706.451 618.763,-701.32"/>
<polygon fill="black" stroke="black" points="620.211,-704.523 628.52,-697.949 617.925,-697.907 620.211,-704.523"/>
<text text-anchor="middle" x="630.6" y="-728.3" font-family="Times,serif" font-size="14.00">collect_haplovcfs</text>
</g>
<!-- p27 -->
<g id="node28" class="node"><title>p27</title>
<ellipse fill="none" stroke="black" cx="682.6" cy="-600" rx="91.9385" ry="18"/>
<text text-anchor="middle" x="682.6" y="-596.3" font-family="Times,serif" font-size="14.00">bgZipCombinedGVCF</text>
</g>
<!-- p26&#45;&gt;p27 -->
<g id="edge27" class="edge"><title>p26&#45;&gt;p27</title>
<path fill="none" stroke="black" d="M682.6,-669.597C682.6,-657.746 682.6,-641.817 682.6,-628.292"/>
<polygon fill="black" stroke="black" points="686.1,-628.084 682.6,-618.084 679.1,-628.084 686.1,-628.084"/>
<text text-anchor="middle" x="710.1" y="-640.3" font-family="Times,serif" font-size="14.00">combined</text>
</g>
<!-- p24 -->
<g id="node26" class="node"><title>p24</title>
<ellipse fill="black" stroke="black" cx="682.6" cy="-762" rx="3.6" ry="3.6"/>
</g>
<!-- p24&#45;&gt;p26 -->
<g id="edge25" class="edge"><title>p24&#45;&gt;p26</title>
<path fill="none" stroke="black" d="M682.6,-758.265C682.6,-751.354 682.6,-732.578 682.6,-716.316"/>
<polygon fill="black" stroke="black" points="686.1,-716.143 682.6,-706.143 679.1,-716.143 686.1,-716.143"/>
</g>
<!-- p25 -->
<g id="node27" class="node"><title>p25</title>
<ellipse fill="black" stroke="black" cx="715.6" cy="-762" rx="3.6" ry="3.6"/>
</g>
<!-- p25&#45;&gt;p26 -->
<g id="edge26" class="edge"><title>p25&#45;&gt;p26</title>
<path fill="none" stroke="black" d="M714.347,-758.265C711.119,-751.222 702.244,-731.859 694.695,-715.39"/>
<polygon fill="black" stroke="black" points="697.805,-713.775 690.457,-706.143 691.442,-716.692 697.805,-713.775"/>
<text text-anchor="middle" x="762.6" y="-728.3" font-family="Times,serif" font-size="14.00">__$eachinparam&lt;2&gt;</text>
</g>
<!-- p29 -->
<g id="node29" class="node"><title>p29</title>
<ellipse fill="none" stroke="black" cx="756.6" cy="-526" rx="3.25" ry="3.5"/>
<text text-anchor="middle" x="742.1" y="-533.3" font-family="Times,serif" font-size="14.00">mix</text>
</g>
<!-- p27&#45;&gt;p29 -->
<g id="edge28" class="edge"><title>p27&#45;&gt;p29</title>
<path fill="none" stroke="black" d="M678.139,-581.703C676.435,-570.942 676.37,-557.41 683.6,-548 697.558,-529.834 726.188,-526.652 743.15,-526.484"/>
<polygon fill="black" stroke="black" points="743.324,-529.989 753.41,-526.744 743.502,-522.991 743.324,-529.989"/>
<text text-anchor="middle" x="750.1" y="-552.3" font-family="Times,serif" font-size="14.00">compressed_comb_gvcf</text>
</g>
<!-- p30 -->
<g id="node31" class="node"><title>p30</title>
<ellipse fill="none" stroke="black" cx="756.6" cy="-480" rx="3.25" ry="3.5"/>
<text text-anchor="middle" x="740.6" y="-487.3" font-family="Times,serif" font-size="14.00">map</text>
</g>
<!-- p29&#45;&gt;p30 -->
<g id="edge30" class="edge"><title>p29&#45;&gt;p30</title>
<path fill="none" stroke="black" d="M756.6,-522.379C756.6,-516.864 756.6,-503.742 756.6,-493.742"/>
<polygon fill="black" stroke="black" points="760.1,-493.552 756.6,-483.552 753.1,-493.552 760.1,-493.552"/>
</g>
<!-- p28 -->
<g id="node30" class="node"><title>p28</title>
<ellipse fill="black" stroke="black" cx="830.6" cy="-600" rx="3.6" ry="3.6"/>
</g>
<!-- p28&#45;&gt;p29 -->
<g id="edge29" class="edge"><title>p28&#45;&gt;p29</title>
<path fill="none" stroke="black" d="M830.679,-596.259C830.767,-587.867 829.883,-562.229 816.6,-548 804.376,-534.906 783.533,-529.974 769.915,-528.118"/>
<polygon fill="black" stroke="black" points="770.188,-524.628 759.893,-527.132 769.503,-531.594 770.188,-524.628"/>
</g>
<!-- p32 -->
<g id="node32" class="node"><title>p32</title>
<ellipse fill="none" stroke="black" cx="794.6" cy="-406" rx="42.3456" ry="18"/>
<text text-anchor="middle" x="794.6" y="-402.3" font-family="Times,serif" font-size="14.00">genotype</text>
</g>
<!-- p30&#45;&gt;p32 -->
<g id="edge31" class="edge"><title>p30&#45;&gt;p32</title>
<path fill="none" stroke="black" d="M756.045,-476.522C754.793,-470.358 752.254,-453.969 757.6,-442 759.71,-437.277 762.787,-432.885 766.28,-428.919"/>
<polygon fill="black" stroke="black" points="768.763,-431.387 773.364,-421.843 763.816,-426.434 768.763,-431.387"/>
<text text-anchor="middle" x="788.1" y="-446.3" font-family="Times,serif" font-size="14.00">genotyping</text>
</g>
<!-- p33 -->
<g id="node34" class="node"><title>p33</title>
<ellipse fill="none" stroke="black" cx="794.6" cy="-332" rx="3.25" ry="3.5"/>
<text text-anchor="middle" x="775.1" y="-339.3" font-family="Times,serif" font-size="14.00">toList</text>
</g>
<!-- p32&#45;&gt;p33 -->
<g id="edge33" class="edge"><title>p32&#45;&gt;p33</title>
<path fill="none" stroke="black" d="M794.6,-387.937C794.6,-375.126 794.6,-357.843 794.6,-346.107"/>
<polygon fill="black" stroke="black" points="798.1,-345.748 794.6,-335.748 791.1,-345.748 798.1,-345.748"/>
<text text-anchor="middle" x="823.1" y="-358.3" font-family="Times,serif" font-size="14.00">genotyped</text>
</g>
<!-- p31 -->
<g id="node33" class="node"><title>p31</title>
<ellipse fill="black" stroke="black" cx="832.6" cy="-480" rx="3.6" ry="3.6"/>
</g>
<!-- p31&#45;&gt;p32 -->
<g id="edge32" class="edge"><title>p31&#45;&gt;p32</title>
<path fill="none" stroke="black" d="M831.796,-476.211C829.927,-469.91 824.96,-454.175 818.6,-442 816.824,-438.6 814.778,-435.136 812.644,-431.773"/>
<polygon fill="black" stroke="black" points="815.393,-429.588 806.921,-423.226 809.577,-433.483 815.393,-429.588"/>
</g>
<!-- p34 -->
<g id="node35" class="node"><title>p34</title>
<ellipse fill="none" stroke="black" cx="794.6" cy="-286" rx="3.25" ry="3.5"/>
<text text-anchor="middle" x="765.1" y="-293.3" font-family="Times,serif" font-size="14.00">transpose</text>
</g>
<!-- p33&#45;&gt;p34 -->
<g id="edge34" class="edge"><title>p33&#45;&gt;p34</title>
<path fill="none" stroke="black" d="M794.6,-328.379C794.6,-322.864 794.6,-309.742 794.6,-299.742"/>
<polygon fill="black" stroke="black" points="798.1,-299.552 794.6,-289.552 791.1,-299.552 798.1,-299.552"/>
</g>
<!-- p35 -->
<g id="node36" class="node"><title>p35</title>
<ellipse fill="none" stroke="black" cx="794.6" cy="-240" rx="3.25" ry="3.5"/>
<text text-anchor="middle" x="775.1" y="-247.3" font-family="Times,serif" font-size="14.00">toList</text>
</g>
<!-- p34&#45;&gt;p35 -->
<g id="edge35" class="edge"><title>p34&#45;&gt;p35</title>
<path fill="none" stroke="black" d="M794.6,-282.379C794.6,-276.864 794.6,-263.742 794.6,-253.742"/>
<polygon fill="black" stroke="black" points="798.1,-253.552 794.6,-243.552 791.1,-253.552 798.1,-253.552"/>
</g>
<!-- p36 -->
<g id="node37" class="node"><title>p36</title>
<ellipse fill="none" stroke="black" cx="794.6" cy="-166" rx="75.0904" ry="18"/>
<text text-anchor="middle" x="794.6" y="-162.3" font-family="Times,serif" font-size="14.00">combineChrVCFs</text>
</g>
<!-- p35&#45;&gt;p36 -->
<g id="edge36" class="edge"><title>p35&#45;&gt;p36</title>
<path fill="none" stroke="black" d="M794.6,-236.265C794.6,-229.354 794.6,-210.578 794.6,-194.316"/>
<polygon fill="black" stroke="black" points="798.1,-194.143 794.6,-184.143 791.1,-194.143 798.1,-194.143"/>
<text text-anchor="middle" x="827.6" y="-206.3" font-family="Times,serif" font-size="14.00">comb_input</text>
</g>
<!-- p37 -->
<g id="node38" class="node"><title>p37</title>
<ellipse fill="none" stroke="black" cx="794.6" cy="-92" rx="3.25" ry="3.5"/>
<text text-anchor="middle" x="780.1" y="-99.3" font-family="Times,serif" font-size="14.00">into</text>
</g>
<!-- p36&#45;&gt;p37 -->
<g id="edge37" class="edge"><title>p36&#45;&gt;p37</title>
<path fill="none" stroke="black" d="M794.6,-147.937C794.6,-135.126 794.6,-117.843 794.6,-106.107"/>
<polygon fill="black" stroke="black" points="798.1,-105.748 794.6,-95.7482 791.1,-105.748 798.1,-105.748"/>
<text text-anchor="middle" x="822.6" y="-118.3" font-family="Times,serif" font-size="14.00">hardfilters</text>
</g>
<!-- p39 -->
<g id="node39" class="node"><title>p39</title>
<ellipse fill="none" stroke="black" cx="725.6" cy="-18" rx="63.5411" ry="18"/>
<text text-anchor="middle" x="725.6" y="-14.3" font-family="Times,serif" font-size="14.00">hardfilters_snp</text>
</g>
<!-- p37&#45;&gt;p39 -->
<g id="edge38" class="edge"><title>p37&#45;&gt;p39</title>
<path fill="none" stroke="black" d="M791.34,-90.585C782.412,-89.2783 757.317,-84.44 743.6,-70 737.279,-63.3457 733.16,-54.3373 730.484,-45.7429"/>
<polygon fill="black" stroke="black" points="733.858,-44.8107 727.96,-36.0097 727.083,-46.5681 733.858,-44.8107"/>
<text text-anchor="middle" x="784.6" y="-58.3" font-family="Times,serif" font-size="14.00">hardfilters_snp</text>
</g>
<!-- p41 -->
<g id="node40" class="node"><title>p41</title>
<ellipse fill="none" stroke="black" cx="914.6" cy="-18" rx="68.3417" ry="18"/>
<text text-anchor="middle" x="914.6" y="-14.3" font-family="Times,serif" font-size="14.00">hardfilters_indel</text>
</g>
<!-- p37&#45;&gt;p41 -->
<g id="edge39" class="edge"><title>p37&#45;&gt;p41</title>
<path fill="none" stroke="black" d="M797.236,-89.3468C802.665,-85.9131 815.439,-77.6869 825.6,-70 834.404,-63.3395 835.376,-60.0664 844.6,-54 853.114,-48.4003 862.647,-43.0776 871.872,-38.3503"/>
<polygon fill="black" stroke="black" points="873.553,-41.4233 880.945,-33.8331 870.433,-35.157 873.553,-41.4233"/>
<text text-anchor="middle" x="889.6" y="-58.3" font-family="Times,serif" font-size="14.00">hardfilters_indel</text>
</g>
<!-- p38 -->
<g id="node41" class="node"><title>p38</title>
<ellipse fill="black" stroke="black" cx="709.6" cy="-92" rx="3.6" ry="3.6"/>
</g>
<!-- p38&#45;&gt;p39 -->
<g id="edge40" class="edge"><title>p38&#45;&gt;p39</title>
<path fill="none" stroke="black" d="M710.208,-88.2654C711.744,-81.3541 715.916,-62.5781 719.53,-46.3163"/>
<polygon fill="black" stroke="black" points="723.038,-46.6641 721.79,-36.1429 716.204,-45.1455 723.038,-46.6641"/>
</g>
<!-- p40 -->
<g id="node42" class="node"><title>p40</title>
<ellipse fill="black" stroke="black" cx="952.6" cy="-92" rx="3.6" ry="3.6"/>
</g>
<!-- p40&#45;&gt;p41 -->
<g id="edge41" class="edge"><title>p40&#45;&gt;p41</title>
<path fill="none" stroke="black" d="M951.796,-88.2108C949.927,-81.9096 944.96,-66.175 938.6,-54 936.947,-50.8348 935.059,-47.6135 933.085,-44.4709"/>
<polygon fill="black" stroke="black" points="935.864,-42.3287 927.416,-35.9341 930.032,-46.2009 935.864,-42.3287"/>
</g>
</g>
</svg>
