<?xml version="1.0" encoding="UTF-8" standalone="no"?>
<!DOCTYPE svg PUBLIC "-//W3C//DTD SVG 1.1//EN"
 "http://www.w3.org/Graphics/SVG/1.1/DTD/svg11.dtd">
<!-- Generated by graphviz version 2.30.1 (20180420.1509)
 -->
<!-- Title: k9_dag Pages: 1 -->
<svg width="648pt" height="637pt"
 viewBox="0.00 0.00 648.00 636.60" xmlns="http://www.w3.org/2000/svg" xmlns:xlink="http://www.w3.org/1999/xlink">
<g id="graph0" class="graph" transform="scale(1 1) rotate(0) translate(4 632.6)">
<title>k9_dag</title>
<polygon fill="white" stroke="white" points="-4,5 -4,-632.6 645,-632.6 645,5 -4,5"/>
<!-- p0 -->
<g id="node1" class="node"><title>p0</title>
<ellipse fill="black" stroke="black" cx="129" cy="-610" rx="3.6" ry="3.6"/>
<text text-anchor="middle" x="63.4" y="-617.4" font-family="Times,serif" font-size="14.00">Channel.fromFilePairs</text>
</g>
<!-- p1 -->
<g id="node2" class="node"><title>p1</title>
<ellipse fill="none" stroke="black" cx="129" cy="-550" rx="3.25" ry="3.5"/>
<text text-anchor="middle" x="114.5" y="-557.3" font-family="Times,serif" font-size="14.00">into</text>
</g>
<!-- p0&#45;&gt;p1 -->
<g id="edge1" class="edge"><title>p0&#45;&gt;p1</title>
<path fill="none" stroke="black" d="M129,-606.203C129,-598.649 129,-577.48 129,-563.66"/>
<polygon fill="black" stroke="black" points="132.5,-563.636 129,-553.636 125.5,-563.636 132.5,-563.636"/>
<text text-anchor="middle" x="155.5" y="-576.3" font-family="Times,serif" font-size="14.00">fastqFiles</text>
</g>
<!-- p4 -->
<g id="node3" class="node"><title>p4</title>
<ellipse fill="none" stroke="black" cx="169" cy="-476" rx="31.2735" ry="18"/>
<text text-anchor="middle" x="169" y="-472.3" font-family="Times,serif" font-size="14.00">fastqc</text>
</g>
<!-- p1&#45;&gt;p4 -->
<g id="edge2" class="edge"><title>p1&#45;&gt;p4</title>
<path fill="none" stroke="black" d="M131.124,-546.963C134.753,-543.394 142.22,-535.658 147,-528 151.791,-520.323 156.026,-511.421 159.468,-503.224"/>
<polygon fill="black" stroke="black" points="162.811,-504.29 163.259,-493.705 156.308,-501.701 162.811,-504.29"/>
<text text-anchor="middle" x="178" y="-516.3" font-family="Times,serif" font-size="14.00">fastq_qc</text>
</g>
<!-- p6 -->
<g id="node4" class="node"><title>p6</title>
<ellipse fill="none" stroke="black" cx="90" cy="-476" rx="27" ry="18"/>
<text text-anchor="middle" x="90" y="-472.3" font-family="Times,serif" font-size="14.00">bwa</text>
</g>
<!-- p1&#45;&gt;p6 -->
<g id="edge3" class="edge"><title>p1&#45;&gt;p6</title>
<path fill="none" stroke="black" d="M125.916,-548.382C118.357,-546.684 98.9422,-541.167 91,-528 86.8018,-521.04 85.4853,-512.515 85.5239,-504.442"/>
<polygon fill="black" stroke="black" points="89.0298,-504.477 86.2268,-494.26 82.0464,-503.995 89.0298,-504.477"/>
<text text-anchor="middle" x="119" y="-516.3" font-family="Times,serif" font-size="14.00">fastq_bwa</text>
</g>
<!-- p8 -->
<g id="node9" class="node"><title>p8</title>
<ellipse fill="none" stroke="black" cx="165" cy="-388" rx="54.3924" ry="18"/>
<text text-anchor="middle" x="165" y="-384.3" font-family="Times,serif" font-size="14.00">gatk_realign</text>
</g>
<!-- p6&#45;&gt;p8 -->
<g id="edge7" class="edge"><title>p6&#45;&gt;p8</title>
<path fill="none" stroke="black" d="M93.3787,-457.975C96.1649,-447.323 100.995,-433.81 109,-424 113.734,-418.198 119.698,-413.079 125.955,-408.671"/>
<polygon fill="black" stroke="black" points="128.077,-411.467 134.582,-403.104 124.282,-405.585 128.077,-411.467"/>
<text text-anchor="middle" x="148.5" y="-428.3" font-family="Times,serif" font-size="14.00">mapped_reads</text>
</g>
<!-- p2 -->
<g id="node5" class="node"><title>p2</title>
<ellipse fill="black" stroke="black" cx="354" cy="-300" rx="3.6" ry="3.6"/>
<text text-anchor="middle" x="300.4" y="-307.4" font-family="Times,serif" font-size="14.00">Channel.fromPath</text>
</g>
<!-- p3 -->
<g id="node6" class="node"><title>p3</title>
<ellipse fill="none" stroke="black" cx="354" cy="-212" rx="3.25" ry="3.5"/>
<text text-anchor="middle" x="338" y="-219.3" font-family="Times,serif" font-size="14.00">map</text>
</g>
<!-- p2&#45;&gt;p3 -->
<g id="edge4" class="edge"><title>p2&#45;&gt;p3</title>
<path fill="none" stroke="black" d="M354,-296.139C354,-285.281 354,-246.206 354,-225.727"/>
<polygon fill="black" stroke="black" points="357.5,-225.615 354,-215.615 350.5,-225.615 357.5,-225.615"/>
<text text-anchor="middle" x="379.5" y="-252.3" font-family="Times,serif" font-size="14.00">bamFiles</text>
</g>
<!-- p12 -->
<g id="node7" class="node"><title>p12</title>
<ellipse fill="none" stroke="black" cx="295" cy="-138" rx="3.25" ry="3.5"/>
<text text-anchor="middle" x="273.5" y="-145.3" font-family="Times,serif" font-size="14.00">concat</text>
</g>
<!-- p3&#45;&gt;p12 -->
<g id="edge5" class="edge"><title>p3&#45;&gt;p12</title>
<path fill="none" stroke="black" d="M353.483,-208.347C351.778,-200.208 345.647,-175.221 332,-160 325.375,-152.61 315.51,-147.192 307.633,-143.712"/>
<polygon fill="black" stroke="black" points="308.709,-140.375 298.121,-139.996 306.162,-146.895 308.709,-140.375"/>
<text text-anchor="middle" x="383.5" y="-164.3" font-family="Times,serif" font-size="14.00">readyBamFiles</text>
</g>
<!-- p13 -->
<g id="node14" class="node"><title>p13</title>
<ellipse fill="none" stroke="black" cx="295" cy="-92" rx="3.25" ry="3.5"/>
<text text-anchor="middle" x="283" y="-99.3" font-family="Times,serif" font-size="14.00">tap</text>
</g>
<!-- p12&#45;&gt;p13 -->
<g id="edge13" class="edge"><title>p12&#45;&gt;p13</title>
<path fill="none" stroke="black" d="M295,-134.379C295,-128.864 295,-115.742 295,-105.742"/>
<polygon fill="black" stroke="black" points="298.5,-105.552 295,-95.5518 291.5,-105.552 298.5,-105.552"/>
</g>
<!-- p5 -->
<g id="node8" class="node"><title>p5</title>
<ellipse fill="black" stroke="black" cx="57" cy="-550" rx="3.6" ry="3.6"/>
</g>
<!-- p5&#45;&gt;p6 -->
<g id="edge6" class="edge"><title>p5&#45;&gt;p6</title>
<path fill="none" stroke="black" d="M57.8955,-546.256C59.9524,-540.047 65.2796,-524.488 71,-512 72.4847,-508.759 74.142,-505.403 75.8423,-502.111"/>
<polygon fill="black" stroke="black" points="79.0066,-503.616 80.6401,-493.148 72.8351,-500.313 79.0066,-503.616"/>
</g>
<!-- p9 -->
<g id="node11" class="node"><title>p9</title>
<ellipse fill="none" stroke="black" cx="165" cy="-300" rx="69.3156" ry="18"/>
<text text-anchor="middle" x="165" y="-296.3" font-family="Times,serif" font-size="14.00">mark_duplicates</text>
</g>
<!-- p8&#45;&gt;p9 -->
<g id="edge9" class="edge"><title>p8&#45;&gt;p9</title>
<path fill="none" stroke="black" d="M165,-369.597C165,-357.746 165,-341.817 165,-328.292"/>
<polygon fill="black" stroke="black" points="168.5,-328.084 165,-318.084 161.5,-328.084 168.5,-328.084"/>
<text text-anchor="middle" x="208" y="-340.3" font-family="Times,serif" font-size="14.00">realigned_reads</text>
</g>
<!-- p7 -->
<g id="node10" class="node"><title>p7</title>
<ellipse fill="black" stroke="black" cx="222" cy="-476" rx="3.6" ry="3.6"/>
</g>
<!-- p7&#45;&gt;p8 -->
<g id="edge8" class="edge"><title>p7&#45;&gt;p8</title>
<path fill="none" stroke="black" d="M220.727,-472.597C216.766,-465.177 204.196,-442.042 192,-424 189.744,-420.662 187.277,-417.221 184.782,-413.86"/>
<polygon fill="black" stroke="black" points="187.466,-411.607 178.622,-405.773 181.897,-415.849 187.466,-411.607"/>
</g>
<!-- p11 -->
<g id="node12" class="node"><title>p11</title>
<ellipse fill="none" stroke="black" cx="236" cy="-212" rx="83.2649" ry="18"/>
<text text-anchor="middle" x="236" y="-208.3" font-family="Times,serif" font-size="14.00">quality_recalibration</text>
</g>
<!-- p9&#45;&gt;p11 -->
<g id="edge10" class="edge"><title>p9&#45;&gt;p11</title>
<path fill="none" stroke="black" d="M161.082,-281.651C159.686,-271.134 159.757,-257.883 166,-248 169.941,-241.761 175.361,-236.594 181.454,-232.325"/>
<polygon fill="black" stroke="black" points="183.394,-235.241 190.105,-227.043 179.746,-229.267 183.394,-235.241"/>
<text text-anchor="middle" x="204.5" y="-252.3" font-family="Times,serif" font-size="14.00">marked_reads</text>
</g>
<!-- p11&#45;&gt;p12 -->
<g id="edge12" class="edge"><title>p11&#45;&gt;p12</title>
<path fill="none" stroke="black" d="M229.886,-193.872C227.221,-183.179 226.074,-169.658 233,-160 243.962,-144.714 266.666,-140.416 281.347,-139.287"/>
<polygon fill="black" stroke="black" points="281.818,-142.772 291.686,-138.914 281.566,-135.777 281.818,-142.772"/>
<text text-anchor="middle" x="280.5" y="-164.3" font-family="Times,serif" font-size="14.00">recalibrated_bam</text>
</g>
<!-- p10 -->
<g id="node13" class="node"><title>p10</title>
<ellipse fill="black" stroke="black" cx="265" cy="-300" rx="3.6" ry="3.6"/>
</g>
<!-- p10&#45;&gt;p11 -->
<g id="edge11" class="edge"><title>p10&#45;&gt;p11</title>
<path fill="none" stroke="black" d="M264.035,-296.139C261.096,-287.422 252.025,-260.523 244.989,-239.657"/>
<polygon fill="black" stroke="black" points="248.246,-238.361 241.734,-230.004 241.613,-240.598 248.246,-238.361"/>
<text text-anchor="middle" x="271.5" y="-252.3" font-family="Times,serif" font-size="14.00">known</text>
</g>
<!-- p15 -->
<g id="node15" class="node"><title>p15</title>
<ellipse fill="black" stroke="black" cx="380" cy="-18" rx="1.8" ry="1.8"/>
</g>
<!-- p13&#45;&gt;p15 -->
<g id="edge14" class="edge"><title>p13&#45;&gt;p15</title>
<path fill="none" stroke="black" d="M298.235,-91.0742C309.379,-91.1455 346.561,-89.8251 366,-70 376.486,-59.3056 379.293,-41.5326 379.95,-30.0444"/>
<polygon fill="black" stroke="black" points="383.451,-29.8928 380.047,-19.8596 376.451,-29.8256 383.451,-29.8928"/>
</g>
<!-- p16 -->
<g id="node16" class="node"><title>p16</title>
<ellipse fill="none" stroke="black" cx="40" cy="-18" rx="39.9464" ry="18"/>
<text text-anchor="middle" x="40" y="-14.3" font-family="Times,serif" font-size="14.00">flagstats</text>
</g>
<!-- p13&#45;&gt;p16 -->
<g id="edge15" class="edge"><title>p13&#45;&gt;p16</title>
<path fill="none" stroke="black" d="M291.832,-90.9511C264.563,-90.5021 69.984,-86.7212 51,-70 44.2582,-64.0617 41.0893,-55.069 39.7367,-46.2802"/>
<polygon fill="black" stroke="black" points="43.2185,-45.9167 38.8781,-36.2517 36.244,-46.5139 43.2185,-45.9167"/>
<text text-anchor="middle" x="124.5" y="-58.3" font-family="Times,serif" font-size="14.00">recalibrated_bam_flagstats</text>
</g>
<!-- p18 -->
<g id="node17" class="node"><title>p18</title>
<ellipse fill="none" stroke="black" cx="525" cy="-18" rx="51.0191" ry="18"/>
<text text-anchor="middle" x="525" y="-14.3" font-family="Times,serif" font-size="14.00">wgsmetrics</text>
</g>
<!-- p13&#45;&gt;p18 -->
<g id="edge16" class="edge"><title>p13&#45;&gt;p18</title>
<path fill="none" stroke="black" d="M298.186,-90.6226C309.964,-89.1506 352.012,-83.2119 384,-70 396.541,-64.8203 397.631,-59.5765 410,-54 430.356,-44.823 453.784,-37.2033 474.161,-31.4421"/>
<polygon fill="black" stroke="black" points="475.179,-34.7921 483.892,-28.7646 473.322,-28.043 475.179,-34.7921"/>
<text text-anchor="middle" x="492" y="-58.3" font-family="Times,serif" font-size="14.00">recalibrated_bam_wgsmetrics</text>
</g>
<!-- p14 -->
<g id="node18" class="node"><title>p14</title>
<ellipse fill="black" stroke="black" cx="210" cy="-18" rx="1.8" ry="1.8"/>
</g>
<!-- p13&#45;&gt;p14 -->
<g id="edge17" class="edge"><title>p13&#45;&gt;p14</title>
<path fill="none" stroke="black" d="M291.73,-90.7449C277.1,-89.53 217.9,-83.8075 207,-70 197.935,-58.5177 201.797,-40.6608 205.69,-29.4098"/>
<polygon fill="black" stroke="black" points="209.06,-30.4164 209.59,-19.8348 202.576,-27.7762 209.06,-30.4164"/>
<text text-anchor="middle" x="284.5" y="-58.3" font-family="Times,serif" font-size="14.00">recalibrated_bam_haplotype</text>
</g>
<!-- p17 -->
<g id="node19" class="node"><title>p17</title>
<ellipse fill="black" stroke="black" cx="600" cy="-92" rx="3.6" ry="3.6"/>
</g>
<!-- p17&#45;&gt;p18 -->
<g id="edge18" class="edge"><title>p17&#45;&gt;p18</title>
<path fill="none" stroke="black" d="M598.948,-88.4058C596.245,-81.977 588.523,-65.0317 578,-54 572.82,-48.5694 566.648,-43.5524 560.377,-39.113"/>
<polygon fill="black" stroke="black" points="562.113,-36.0636 551.85,-33.4326 558.232,-41.8895 562.113,-36.0636"/>
<text text-anchor="middle" x="614.5" y="-58.3" font-family="Times,serif" font-size="14.00">reference</text>
</g>
</g>
</svg>
